<svg xmlns="http://www.w3.org/2000/svg" viewBox="0 0 320 200">
  <defs>
    <linearGradient id="cardGrad" x1="0%" y1="0%" x2="100%" y2="100%">
      <stop offset="0%" stop-color="#3a0f1e" />
      <stop offset="55%" stop-color="#1c0710" />
      <stop offset="100%" stop-color="#0a0405" />
    </linearGradient>
    <radialGradient id="medallionGlow" cx="50%" cy="50%" r="50%">
      <stop offset="0%" stop-color="#e0b34a" stop-opacity="0.16" />
      <stop offset="100%" stop-color="#e0b34a" stop-opacity="0" />
    </radialGradient>
  </defs>

  <rect x="3" y="3" width="314" height="194" rx="20" fill="url(#cardGrad)" />
  <rect x="3" y="3" width="314" height="194" rx="20" fill="none" stroke="#c9932a" stroke-width="1.5" />
  <rect x="9" y="9" width="302" height="182" rx="15" fill="none" stroke="#e0b34a" stroke-width="0.75" opacity="0.35" />

  <circle cx="160" cy="85" r="58" fill="url(#medallionGlow)" />
  <circle cx="160" cy="85" r="52" fill="none" stroke="#c9932a" stroke-width="1.5" />
  <circle cx="160" cy="85" r="46.5" fill="none" stroke="#e0b34a" stroke-width="0.75" opacity="0.5" />

  <!-- corona d'alloro alla base del medaglione -->
  <g fill="#c9932a">
    <ellipse cx="150" cy="124" rx="6.5" ry="2.6" transform="rotate(-18 150 124)" />
    <ellipse cx="139" cy="119" rx="6.5" ry="2.6" transform="rotate(-38 139 119)" />
    <ellipse cx="130" cy="110" rx="6.5" ry="2.6" transform="rotate(-56 130 110)" />
    <ellipse cx="123" cy="99" rx="6" ry="2.4" transform="rotate(-72 123 99)" />
    <path d="M 156,126 Q 145,124 137,118 Q 129,110 124,100" fill="none" stroke="#c9932a" stroke-width="1" opacity="0.7" />

    <ellipse cx="170" cy="124" rx="6.5" ry="2.6" transform="rotate(18 170 124)" />
    <ellipse cx="181" cy="119" rx="6.5" ry="2.6" transform="rotate(38 181 119)" />
    <ellipse cx="190" cy="110" rx="6.5" ry="2.6" transform="rotate(56 190 110)" />
    <ellipse cx="197" cy="99" rx="6" ry="2.4" transform="rotate(72 197 99)" />
    <path d="M 164,126 Q 175,124 183,118 Q 191,110 196,100" fill="none" stroke="#c9932a" stroke-width="1" opacity="0.7" />
  </g>

  <!-- bilancia della giustizia, ornata -->
  <circle cx="160" cy="63" r="3.2" fill="#e0b34a" />
  <line x1="160" y1="66" x2="160" y2="112" stroke="#dcae4a" stroke-width="3.5" stroke-linecap="round" />
  <line x1="133" y1="79" x2="187" y2="79" stroke="#dcae4a" stroke-width="3.5" stroke-linecap="round" />
  <path d="M 160,66 L 148,79 M 160,66 L 172,79" fill="none" stroke="#dcae4a" stroke-width="1.4" opacity="0.8" />
  <line x1="133" y1="79" x2="133" y2="98" stroke="#dcae4a" stroke-width="2" stroke-linecap="round" />
  <line x1="187" y1="79" x2="187" y2="98" stroke="#dcae4a" stroke-width="2" stroke-linecap="round" />
  <path d="M 121,98 Q 133,112 145,98" fill="none" stroke="#dcae4a" stroke-width="2.4" stroke-linecap="round" />
  <path d="M 175,98 Q 187,112 199,98" fill="none" stroke="#dcae4a" stroke-width="2.4" stroke-linecap="round" />
  <line x1="160" y1="112" x2="160" y2="120" stroke="#dcae4a" stroke-width="3.5" stroke-linecap="round" />
  <line x1="144" y1="120" x2="176" y2="120" stroke="#dcae4a" stroke-width="3.5" stroke-linecap="round" />

  <text x="160" y="176" text-anchor="middle" font-family="Georgia, 'Times New Roman', serif" font-size="15" letter-spacing="6" fill="#e0b34a">THEMIS</text>
</svg>
